# xmcd
#
# Track frame offsets:
#	150
#	13461
#	24158
#	36207
#	45858
#	56495
#	71663
#	86325
#	102312
#	117274
#	132652
#	133252
#	134077
#
# Disc length: 1796 seconds
#
# Revision: 1
# Processed by: cddbd v1.5.2PL0 Copyright (c) Steve Scherf et al.
# Submitted via: audiograbber 1.83.01
#
DISCID=b907020d
DTITLE=Various Artist - Hillcrest #03
DYEAR=1900
DGENRE=Country
TTITLE0=Larry Ford - On My Way Back To The Old Home
TTITLE1=Diana Kelly - Love Is Where You Leave Your Heart
TTITLE2=Jim Stricklan - Tallest Tale In Texas
TTITLE3=Neil Matthews - Mrs. Jones
TTITLE4=Babs Wynn - Good Home Cookin'
TTITLE5=Brad Kepler - I Don't Ever Want To Lose You
TTITLE6=Barry Laporte - Cowboy And The Alberta Rose
TTITLE7=Janet McGarry - I WIll Grow In Love With You
TTITLE8=Brian Dolph - Headin' Down To Mexico
TTITLE9=Ross Allen - I'll Be Seeing You Someday
TTITLE10=Brian Dolph - Radio Liner
TTITLE11=Janet McGarry - Radio Liner
TTITLE12=Diana Kelley - Radio Liner
EXTD=
EXTT0=
EXTT1=
EXTT2=
EXTT3=
EXTT4=
EXTT5=
EXTT6=
EXTT7=
EXTT8=
EXTT9=
EXTT10=
EXTT11=
EXTT12=
PLAYORDER=
